<svg xmlns="http://www.w3.org/2000/svg" viewBox="0 0 32 32"><circle cx="7.98" cy="16" r="3.08"/><circle cx="4.5" cy="8.73" r="3.08"/><circle cx="11.46" cy="23.27" r="3.08"/><path d="M30.09 22.56h-11.6a.48.48 0 0 1-.48-.48v-.71c0-.27.22-.48.48-.48h11.6c.27 0 .48.22.48.48v.71c0 .26-.22.48-.48.48zM30.09 25.66h-11.6a.48.48 0 0 1-.48-.48v-.71c0-.27.22-.48.48-.48h11.6c.27 0 .48.22.48.48v.71c0 .26-.22.48-.48.48zM26.61 15.29h-11.6a.48.48 0 0 1-.48-.48v-.71c0-.27.22-.48.48-.48h11.6c.27 0 .48.22.48.48v.71c.01.26-.21.48-.48.48zM26.61 18.39h-11.6a.48.48 0 0 1-.48-.48v-.71c0-.27.22-.48.48-.48h11.6c.27 0 .48.22.48.48v.71c.01.26-.21.48-.48.48z"/><g><path d="M23.14 8.02h-11.6a.48.48 0 0 1-.48-.48v-.72c0-.27.22-.48.48-.48h11.6c.27 0 .48.22.48.48v.71c0 .27-.22.49-.48.49zM23.14 11.12h-11.6a.48.48 0 0 1-.48-.48v-.72c0-.27.22-.48.48-.48h11.6c.27 0 .48.22.48.48v.71c0 .28-.22.49-.48.49z"/></g></svg>