<svg xmlns="http://www.w3.org/2000/svg" viewBox="0 0 32 32"><path d="M15.97 24.32h-4.04v-6.65H5.27v6.65H1.23V7.68h4.04v6.44h6.65V7.68h4.04v16.64zM19.67 8.4c1.76-.71 3.47-1.07 5.16-1.07 3.54 0 5.39 2.02 5.39 4.54 0 1.64-1.05 3.11-2.21 3.49 1.45.45 2.76 2.12 2.76 4.13 0 3.4-2.38 5.18-5.96 5.18-2.47 0-5.27-1.05-6.03-1.9l1.64-3.16c1.26.74 2.52 1.19 3.92 1.19 1.5 0 2.64-.48 2.33-2.04-.26-1.28-1.45-1.66-3.33-1.66h-1.52v-3.26h1.54c2.21 0 2.71-.76 2.83-1.52.17-.97-.67-1.57-2.28-1.33-.83.12-2.04.45-2.76.69L19.67 8.4z"/></svg>