<svg xmlns="http://www.w3.org/2000/svg" viewBox="0 0 32 32"><path d="M15.36 24.32h-4.03v-6.64H4.68v6.64H.65V7.71h4.03v6.43h6.64V7.71h4.03v16.61zM28.74 12.38c-.78-1.12-1.66-1.59-2.82-1.59-1.31 0-2.33.76-2.92 2.25-.15.36-.26.8-.34 1.27.9-.71 1.97-1.01 3.21-1.01 3.56 0 5.48 2.47 5.48 5.55 0 3.51-2.94 5.81-6.05 5.81-4.34 0-6.6-2.89-6.6-8.19 0-5.81 3.06-9.16 7.09-9.16 2.11 0 3.7.71 5.2 2.42l-2.25 2.65zm-1.47 6.1c0-1.45-.66-2.42-2.09-2.42-1.3 0-2.24.69-2.63 1.65.2 2.4 1.36 3.65 2.96 3.38.93-.17 1.76-.97 1.76-2.61z"/></svg>