<svg xmlns="http://www.w3.org/2000/svg" viewBox="0 0 32 32"><path d="M4.13 17.71H1.09l1.57-8.94-1.67.46-.36-2.4 5.7-1.55-2.2 12.43zM7.8 15.99c1.98-1.25 3.06-1.7 4.81-1.7 2.43 0 3.86 1.36 3.75 3.39-.12 2.05-1.79 3.63-2.85 4.31-1.46.91-2.7 1.2-3.52 1.95h5l-.49 2.78H5.85c.73-4.12 3.67-5.65 5.14-6.39 1.04-.5 1.51-.76 1.88-1.22.68-.83.56-2.03-.85-2.03-.64 0-1.98.31-3.39 1.37l-.83-2.46zM20.78 8.4H9.16a.48.48 0 0 1-.48-.48V7.2c0-.27.22-.48.48-.48h11.63c.27 0 .48.22.48.48v.71c0 .27-.22.49-.49.49zM20.78 11.5H9.16a.48.48 0 0 1-.48-.48v-.72c0-.27.22-.48.48-.48h11.63c.27 0 .48.22.48.48v.71c0 .27-.22.49-.49.49z"/><g><path d="M30.89 19.79h-11.6a.48.48 0 0 1-.48-.48v-.71c0-.27.22-.48.48-.48h11.6c.27 0 .48.22.48.48v.71c.01.26-.21.48-.48.48zM30.89 22.9h-11.6a.48.48 0 0 1-.48-.48v-.72c0-.27.22-.48.48-.48h11.6c.27 0 .48.22.48.48v.71c.01.27-.21.49-.48.49z"/></g></svg>