<svg xmlns="http://www.w3.org/2000/svg" viewBox="0 0 32 32"><path d="M23.605 22.676l7.757 7.756-1.294 1.294-7.757-7.756z"/><path d="M31.37 23.97l-7.757 7.757-1.294-1.294 7.757-7.757zM20.79 20.7l.01-2.89c0-.77-.15-1.47-.42-2.15a5.517 5.517 0 0 0-4.93-3.39l-.01 2.89a2.5 2.5 0 0 1 1.4.5c.65.48 1.12 1.27 1.1 2.15l-.01 2.89c0 .86-.44 1.65-1.12 2.14-.43.34-1 .54-1.58.54l-9.04-.04c-1.45-.01-2.66-1.23-2.66-2.68l.01-2.89c.01-1.45 1.21-2.64 2.68-2.66l2.03.01-.01-2.91H6.2C3.17 12.2.65 14.7.64 17.72l-.01 2.89c-.01 3.07 2.46 5.57 5.51 5.56l9.04.04c2.3.01 4.3-1.38 5.14-3.39a5.4 5.4 0 0 0 .47-2.12zm9.73-5.52l.01-2.89a5.555 5.555 0 0 0-5.54-5.58l-9.04-.04c-2.3-.01-4.3 1.38-5.14 3.39-.27.68-.43 1.38-.44 2.14l-.01 2.89c0 .77.15 1.51.42 2.15a5.517 5.517 0 0 0 4.93 3.39l.01-2.89c-.52-.02-.99-.18-1.4-.5-.65-.48-1.1-1.29-1.1-2.15l.01-2.89c0-.9.44-1.65 1.12-2.14.45-.36 1-.54 1.58-.54l9.04.04c1.45.01 2.68 1.21 2.66 2.68l-.01 2.89a2.682 2.682 0 0 1-2.68 2.66l-2.03-.01-.01 2.89 2.03.01c3.09.05 5.58-2.43 5.59-5.5z"/></svg>